<mxfile host="Electron" agent="Mozilla/5.0 (X11; Linux x86_64) AppleWebKit/537.36 (KHTML, like Gecko) draw.io/24.4.0 Chrome/120.0.6099.109 Electron/28.1.0 Safari/537.36" modified="2024-08-07T14:45:53.480Z" version="24.4.0" etag="8pMGbD6FuoAhaoDAHhio" type="device">
  <diagram name="Page-1" id="P92FgvspqokhhTBe0gxY">
    <mxGraphModel dx="1972" dy="775" grid="1" gridSize="10" guides="1" tooltips="1" connect="1" arrows="1" fold="1" page="1" pageScale="1" pageWidth="850" pageHeight="1100" math="0" shadow="0">
      <root>
        <mxCell id="0" />
        <mxCell id="1" parent="0" />
        <mxCell id="5QSs01hQfNpRB05uORgV-1" value="Producer (Exposé internet)&lt;br&gt;&lt;br&gt;Master&lt;br&gt;&lt;br&gt;Démarre la course&lt;br&gt;&lt;br&gt;Peut envoyer une carte crevaison&lt;br&gt;&lt;div&gt;Plein d&#39;essence&lt;/div&gt;&lt;div&gt;&lt;br&gt;&lt;/div&gt;&lt;div&gt;&lt;br&gt;&lt;/div&gt;" style="rounded=0;whiteSpace=wrap;html=1;" parent="1" vertex="1">
          <mxGeometry x="490" y="30" width="120" height="140" as="geometry" />
        </mxCell>
        <mxCell id="5QSs01hQfNpRB05uORgV-10" value="Ansible" style="edgeStyle=orthogonalEdgeStyle;rounded=0;orthogonalLoop=1;jettySize=auto;html=1;" parent="1" source="5QSs01hQfNpRB05uORgV-2" target="5QSs01hQfNpRB05uORgV-9" edge="1">
          <mxGeometry relative="1" as="geometry" />
        </mxCell>
        <mxCell id="5QSs01hQfNpRB05uORgV-11" style="edgeStyle=orthogonalEdgeStyle;rounded=0;orthogonalLoop=1;jettySize=auto;html=1;entryX=0.5;entryY=1;entryDx=0;entryDy=0;" parent="1" source="5QSs01hQfNpRB05uORgV-2" target="5QSs01hQfNpRB05uORgV-3" edge="1">
          <mxGeometry relative="1" as="geometry" />
        </mxCell>
        <mxCell id="5QSs01hQfNpRB05uORgV-14" value="Ansible" style="edgeLabel;html=1;align=center;verticalAlign=middle;resizable=0;points=[];" parent="5QSs01hQfNpRB05uORgV-11" vertex="1" connectable="0">
          <mxGeometry x="0.0769" y="-2" relative="1" as="geometry">
            <mxPoint as="offset" />
          </mxGeometry>
        </mxCell>
        <mxCell id="5QSs01hQfNpRB05uORgV-12" style="edgeStyle=orthogonalEdgeStyle;rounded=0;orthogonalLoop=1;jettySize=auto;html=1;" parent="1" source="5QSs01hQfNpRB05uORgV-2" target="5QSs01hQfNpRB05uORgV-8" edge="1">
          <mxGeometry relative="1" as="geometry" />
        </mxCell>
        <mxCell id="5QSs01hQfNpRB05uORgV-13" value="Ansible" style="edgeLabel;html=1;align=center;verticalAlign=middle;resizable=0;points=[];" parent="5QSs01hQfNpRB05uORgV-12" vertex="1" connectable="0">
          <mxGeometry x="-0.0333" y="-4" relative="1" as="geometry">
            <mxPoint as="offset" />
          </mxGeometry>
        </mxCell>
        <mxCell id="5QSs01hQfNpRB05uORgV-2" value="Actor" style="shape=umlActor;verticalLabelPosition=bottom;verticalAlign=top;html=1;outlineConnect=0;" parent="1" vertex="1">
          <mxGeometry x="40" y="420" width="30" height="60" as="geometry" />
        </mxCell>
        <mxCell id="5QSs01hQfNpRB05uORgV-21" style="edgeStyle=orthogonalEdgeStyle;rounded=0;orthogonalLoop=1;jettySize=auto;html=1;entryX=1;entryY=0.5;entryDx=0;entryDy=0;" parent="1" source="5QSs01hQfNpRB05uORgV-3" target="5QSs01hQfNpRB05uORgV-8" edge="1">
          <mxGeometry relative="1" as="geometry" />
        </mxCell>
        <mxCell id="5QSs01hQfNpRB05uORgV-25" value="" style="edgeStyle=orthogonalEdgeStyle;rounded=0;orthogonalLoop=1;jettySize=auto;html=1;" parent="1" source="5QSs01hQfNpRB05uORgV-3" target="5QSs01hQfNpRB05uORgV-24" edge="1">
          <mxGeometry relative="1" as="geometry" />
        </mxCell>
        <mxCell id="5QSs01hQfNpRB05uORgV-3" value="Consumer&lt;br&gt;local&lt;br&gt;&lt;br&gt;Slave" style="rounded=1;whiteSpace=wrap;html=1;" parent="1" vertex="1">
          <mxGeometry x="190" y="350" width="120" height="60" as="geometry" />
        </mxCell>
        <mxCell id="5QSs01hQfNpRB05uORgV-5" style="edgeStyle=orthogonalEdgeStyle;rounded=0;orthogonalLoop=1;jettySize=auto;html=1;entryX=0.567;entryY=1.017;entryDx=0;entryDy=0;entryPerimeter=0;" parent="1" source="5QSs01hQfNpRB05uORgV-3" target="5QSs01hQfNpRB05uORgV-1" edge="1">
          <mxGeometry relative="1" as="geometry" />
        </mxCell>
        <mxCell id="5QSs01hQfNpRB05uORgV-22" style="edgeStyle=orthogonalEdgeStyle;rounded=0;orthogonalLoop=1;jettySize=auto;html=1;entryX=0;entryY=0.5;entryDx=0;entryDy=0;" parent="1" source="5QSs01hQfNpRB05uORgV-8" target="5QSs01hQfNpRB05uORgV-9" edge="1">
          <mxGeometry relative="1" as="geometry" />
        </mxCell>
        <mxCell id="5QSs01hQfNpRB05uORgV-8" value="&lt;div&gt;Otel Col&lt;/div&gt;&lt;br&gt;local" style="rounded=1;whiteSpace=wrap;html=1;" parent="1" vertex="1">
          <mxGeometry x="-100" y="290" width="120" height="60" as="geometry" />
        </mxCell>
        <mxCell id="5QSs01hQfNpRB05uORgV-9" value="&lt;div&gt;Grafana&lt;/div&gt;&lt;div&gt;local&lt;br&gt;&lt;/div&gt;" style="rounded=1;whiteSpace=wrap;html=1;" parent="1" vertex="1">
          <mxGeometry x="-230" y="100" width="120" height="60" as="geometry" />
        </mxCell>
        <mxCell id="5QSs01hQfNpRB05uORgV-27" style="edgeStyle=orthogonalEdgeStyle;rounded=0;orthogonalLoop=1;jettySize=auto;html=1;entryX=1;entryY=0.5;entryDx=0;entryDy=0;" parent="1" source="5QSs01hQfNpRB05uORgV-15" target="5QSs01hQfNpRB05uORgV-1" edge="1">
          <mxGeometry relative="1" as="geometry" />
        </mxCell>
        <mxCell id="5QSs01hQfNpRB05uORgV-15" value="Un front pour le classement" style="rounded=0;whiteSpace=wrap;html=1;" parent="1" vertex="1">
          <mxGeometry x="661" y="70" width="120" height="60" as="geometry" />
        </mxCell>
        <mxCell id="5QSs01hQfNpRB05uORgV-16" value="&lt;div&gt;Ctfd&lt;/div&gt;&lt;div&gt;Pour répondre aux questions&lt;br&gt;&lt;/div&gt;" style="rounded=0;whiteSpace=wrap;html=1;" parent="1" vertex="1">
          <mxGeometry x="541" y="420" width="120" height="60" as="geometry" />
        </mxCell>
        <mxCell id="5QSs01hQfNpRB05uORgV-17" value="" style="endArrow=none;html=1;rounded=0;" parent="1" edge="1">
          <mxGeometry width="50" height="50" relative="1" as="geometry">
            <mxPoint x="420" y="550" as="sourcePoint" />
            <mxPoint x="420" y="75" as="targetPoint" />
          </mxGeometry>
        </mxCell>
        <mxCell id="5QSs01hQfNpRB05uORgV-19" value="&lt;div&gt;En Local&lt;/div&gt;" style="text;html=1;align=center;verticalAlign=middle;whiteSpace=wrap;rounded=0;" parent="1" vertex="1">
          <mxGeometry x="40" y="220" width="60" height="30" as="geometry" />
        </mxCell>
        <mxCell id="5QSs01hQfNpRB05uORgV-20" value="à Distance" style="text;html=1;align=center;verticalAlign=middle;whiteSpace=wrap;rounded=0;" parent="1" vertex="1">
          <mxGeometry x="470" y="240" width="60" height="30" as="geometry" />
        </mxCell>
        <mxCell id="5QSs01hQfNpRB05uORgV-26" style="edgeStyle=orthogonalEdgeStyle;rounded=0;orthogonalLoop=1;jettySize=auto;html=1;" parent="1" source="5QSs01hQfNpRB05uORgV-24" target="5QSs01hQfNpRB05uORgV-8" edge="1">
          <mxGeometry relative="1" as="geometry" />
        </mxCell>
        <mxCell id="5QSs01hQfNpRB05uORgV-24" value="Front pour réparer crevaison et réagir aux events envoyer par le master&lt;br&gt;&lt;br&gt;(boite noire)&lt;br&gt;4 boutons et basta !" style="whiteSpace=wrap;html=1;rounded=1;" parent="1" vertex="1">
          <mxGeometry x="190" y="140" width="120" height="130" as="geometry" />
        </mxCell>
      </root>
    </mxGraphModel>
  </diagram>
</mxfile>
